<svg width="144" height="24" viewBox="0 0 144 24" fill="none" xmlns="http://www.w3.org/2000/svg">
<path d="M22 10.1001C22.1 9.60006 21.7 9.00006 21.2 9.00006L15.5 8.20006L12.9 3.00006C12.8 2.80006 12.7 2.70006 12.5 2.60006C12 2.30006 11.4 2.50006 11.1 3.00006L8.6 8.20006L2.9 9.00006C2.6 9.00006 2.4 9.10006 2.3 9.30006C1.9 9.70006 1.9 10.3001 2.3 10.7001L6.4 14.7001L5.4 20.4001C5.4 20.6001 5.4 20.8001 5.5 21.0001C5.8 21.5001 6.4 21.7001 6.9 21.4001L12 18.7001L17.1 21.4001C17.2 21.5001 17.4 21.5001 17.6 21.5001C17.7 21.5001 17.7 21.5001 17.8 21.5001C18.3 21.4001 18.7 20.9001 18.6 20.3001L17.6 14.6001L21.7 10.6001C21.9 10.5001 22 10.3001 22 10.1001Z" fill="#F1DB63"/>
<path d="M52 10.1001C52.1 9.60006 51.7 9.00006 51.2 9.00006L45.5 8.20006L42.9 3.00006C42.8 2.80006 42.7 2.70006 42.5 2.60006C42 2.30006 41.4 2.50006 41.1 3.00006L38.6 8.20006L32.9 9.00006C32.6 9.00006 32.4 9.10006 32.3 9.30006C31.9 9.70006 31.9 10.3001 32.3 10.7001L36.4 14.7001L35.4 20.4001C35.4 20.6001 35.4 20.8001 35.5 21.0001C35.8 21.5001 36.4 21.7001 36.9 21.4001L42 18.7001L47.1 21.4001C47.2 21.5001 47.4 21.5001 47.6 21.5001C47.7 21.5001 47.7 21.5001 47.8 21.5001C48.3 21.4001 48.7 20.9001 48.6 20.3001L47.6 14.6001L51.7 10.6001C51.9 10.5001 52 10.3001 52 10.1001Z" fill="#F1DB63"/>
<path d="M82 10.1001C82.1 9.60006 81.7 9.00006 81.2 9.00006L75.5 8.20006L72.9 3.00006C72.8 2.80006 72.7 2.70006 72.5 2.60006C72 2.30006 71.4 2.50006 71.1 3.00006L68.6 8.20006L62.9 9.00006C62.6 9.00006 62.4 9.10006 62.3 9.30006C61.9 9.70006 61.9 10.3001 62.3 10.7001L66.4 14.7001L65.4 20.4001C65.4 20.6001 65.4 20.8001 65.5 21.0001C65.8 21.5001 66.4 21.7001 66.9 21.4001L72 18.7001L77.1 21.4001C77.2 21.5001 77.4 21.5001 77.6 21.5001C77.7 21.5001 77.7 21.5001 77.8 21.5001C78.3 21.4001 78.7 20.9001 78.6 20.3001L77.6 14.6001L81.7 10.6001C81.9 10.5001 82 10.3001 82 10.1001Z" fill="#F1DB63"/>
<path d="M112 10.1001C112.1 9.60006 111.7 9.00006 111.2 9.00006L105.5 8.20006L102.9 3.00006C102.8 2.80006 102.7 2.70006 102.5 2.60006C102 2.30006 101.4 2.50006 101.1 3.00006L98.6 8.20006L92.9 9.00006C92.6 9.00006 92.4 9.10006 92.3 9.30006C91.9 9.70006 91.9 10.3001 92.3 10.7001L96.4 14.7001L95.4 20.4001C95.4 20.6001 95.4 20.8001 95.5 21.0001C95.8 21.5001 96.4 21.7001 96.9 21.4001L102 18.7001L107.1 21.4001C107.2 21.5001 107.4 21.5001 107.6 21.5001C107.7 21.5001 107.7 21.5001 107.8 21.5001C108.3 21.4001 108.7 20.9001 108.6 20.3001L107.6 14.6001L111.7 10.6001C111.9 10.5001 112 10.3001 112 10.1001Z" fill="#F1DB63"/>
<path d="M142 9.67002C141.937 9.48711 141.822 9.32645 141.669 9.20753C141.517 9.0886 141.333 9.01652 141.14 9.00002L135.45 8.17002L132.9 3.00002C132.818 2.83095 132.69 2.68837 132.531 2.5886C132.372 2.48883 132.188 2.43591 132 2.43591C131.812 2.43591 131.628 2.48883 131.469 2.5886C131.31 2.68837 131.182 2.83095 131.1 3.00002L128.55 8.16002L122.86 9.00002C122.675 9.02633 122.501 9.10399 122.358 9.22418C122.215 9.34438 122.108 9.5023 122.05 9.68002C121.997 9.8537 121.992 10.0385 122.036 10.2147C122.08 10.3909 122.171 10.5517 122.3 10.68L126.43 14.68L125.43 20.36C125.394 20.5475 125.413 20.7413 125.484 20.9185C125.555 21.0957 125.675 21.2489 125.83 21.36C125.981 21.4681 126.16 21.5319 126.345 21.5443C126.53 21.5567 126.716 21.5171 126.88 21.43L132 18.76L137.1 21.44C137.24 21.5192 137.399 21.5606 137.56 21.56C137.772 21.5608 137.978 21.4942 138.15 21.37C138.305 21.2589 138.425 21.1057 138.496 20.9285C138.567 20.7513 138.586 20.5575 138.55 20.37L137.55 14.69L141.68 10.69C141.824 10.5677 141.931 10.4069 141.988 10.2264C142.044 10.0458 142.049 9.8529 142 9.67002ZM135.85 13.67C135.733 13.7835 135.645 13.9239 135.594 14.079C135.544 14.2341 135.532 14.3993 135.56 14.56L136.28 18.75L132.52 16.75C132.375 16.673 132.214 16.6327 132.05 16.6327C131.886 16.6327 131.725 16.673 131.58 16.75L127.82 18.75L128.54 14.56C128.568 14.3993 128.556 14.2341 128.506 14.079C128.455 13.9239 128.367 13.7835 128.25 13.67L125.25 10.67L129.46 10.06C129.622 10.0375 129.776 9.97556 129.908 9.87967C130.041 9.78379 130.148 9.65686 130.22 9.51002L132 5.70002L133.88 9.52002C133.952 9.66686 134.059 9.79379 134.191 9.88968C134.324 9.98556 134.478 10.0475 134.64 10.07L138.85 10.68L135.85 13.67Z" fill="#F1DB63"/>
</svg>
