<svg width="145" height="24" viewBox="0 0 145 24" fill="none" xmlns="http://www.w3.org/2000/svg">
<path d="M22.5 10.1001C22.6 9.60006 22.2 9.00006 21.7 9.00006L16 8.20006L13.4 3.00006C13.3 2.80006 13.2 2.70006 13 2.60006C12.5 2.30006 11.9 2.50006 11.6 3.00006L9.1 8.20006L3.4 9.00006C3.1 9.00006 2.9 9.10006 2.8 9.30006C2.4 9.70006 2.4 10.3001 2.8 10.7001L6.9 14.7001L5.9 20.4001C5.9 20.6001 5.9 20.8001 6 21.0001C6.3 21.5001 6.9 21.7001 7.4 21.4001L12.5 18.7001L17.6 21.4001C17.7 21.5001 17.9 21.5001 18.1 21.5001C18.2 21.5001 18.2 21.5001 18.3 21.5001C18.8 21.4001 19.2 20.9001 19.1 20.3001L18.1 14.6001L22.2 10.6001C22.4 10.5001 22.5 10.3001 22.5 10.1001Z" fill="#F1DB63"/>
<path d="M52.5 10.1001C52.6 9.60006 52.2 9.00006 51.7 9.00006L46 8.20006L43.4 3.00006C43.3 2.80006 43.2 2.70006 43 2.60006C42.5 2.30006 41.9 2.50006 41.6 3.00006L39.1 8.20006L33.4 9.00006C33.1 9.00006 32.9 9.10006 32.8 9.30006C32.4 9.70006 32.4 10.3001 32.8 10.7001L36.9 14.7001L35.9 20.4001C35.9 20.6001 35.9 20.8001 36 21.0001C36.3 21.5001 36.9 21.7001 37.4 21.4001L42.5 18.7001L47.6 21.4001C47.7 21.5001 47.9 21.5001 48.1 21.5001C48.2 21.5001 48.2 21.5001 48.3 21.5001C48.8 21.4001 49.2 20.9001 49.1 20.3001L48.1 14.6001L52.2 10.6001C52.4 10.5001 52.5 10.3001 52.5 10.1001Z" fill="#F1DB63"/>
<path d="M82.5 10.1001C82.6 9.60006 82.2 9.00006 81.7 9.00006L76 8.20006L73.4 3.00006C73.3 2.80006 73.2 2.70006 73 2.60006C72.5 2.30006 71.9 2.50006 71.6 3.00006L69.1 8.20006L63.4 9.00006C63.1 9.00006 62.9 9.10006 62.8 9.30006C62.4 9.70006 62.4 10.3001 62.8 10.7001L66.9 14.7001L65.9 20.4001C65.9 20.6001 65.9 20.8001 66 21.0001C66.3 21.5001 66.9 21.7001 67.4 21.4001L72.5 18.7001L77.6 21.4001C77.7 21.5001 77.9 21.5001 78.1 21.5001C78.2 21.5001 78.2 21.5001 78.3 21.5001C78.8 21.4001 79.2 20.9001 79.1 20.3001L78.1 14.6001L82.2 10.6001C82.4 10.5001 82.5 10.3001 82.5 10.1001Z" fill="#F1DB63"/>
<path d="M112.5 10.1001C112.6 9.60006 112.2 9.00006 111.7 9.00006L106 8.20006L103.4 3.00006C103.3 2.80006 103.2 2.70006 103 2.60006C102.5 2.30006 101.9 2.50006 101.6 3.00006L99.1 8.20006L93.4 9.00006C93.1 9.00006 92.9 9.10006 92.8 9.30006C92.4 9.70006 92.4 10.3001 92.8 10.7001L96.9 14.7001L95.9 20.4001C95.9 20.6001 95.9 20.8001 96 21.0001C96.3 21.5001 96.9 21.7001 97.4 21.4001L102.5 18.7001L107.6 21.4001C107.7 21.5001 107.9 21.5001 108.1 21.5001C108.2 21.5001 108.2 21.5001 108.3 21.5001C108.8 21.4001 109.2 20.9001 109.1 20.3001L108.1 14.6001L112.2 10.6001C112.4 10.5001 112.5 10.3001 112.5 10.1001Z" fill="#F1DB63"/>
<path d="M142.5 10.1001C142.6 9.60006 142.2 9.00006 141.7 9.00006L136 8.20006L133.4 3.00006C133.3 2.80006 133.2 2.70006 133 2.60006C132.5 2.30006 131.9 2.50006 131.6 3.00006L129.1 8.20006L123.4 9.00006C123.1 9.00006 122.9 9.10006 122.8 9.30006C122.4 9.70006 122.4 10.3001 122.8 10.7001L126.9 14.7001L125.9 20.4001C125.9 20.6001 125.9 20.8001 126 21.0001C126.3 21.5001 126.9 21.7001 127.4 21.4001L132.5 18.7001L137.6 21.4001C137.7 21.5001 137.9 21.5001 138.1 21.5001C138.2 21.5001 138.2 21.5001 138.3 21.5001C138.8 21.4001 139.2 20.9001 139.1 20.3001L138.1 14.6001L142.2 10.6001C142.4 10.5001 142.5 10.3001 142.5 10.1001Z" fill="#F1DB63"/>
</svg>
