<svg width="106" height="30" viewBox="0 0 106 30" fill="none" xmlns="http://www.w3.org/2000/svg">
<path d="M85.1719 29.9926C84.7969 29.9926 84.6094 29.8051 84.6094 29.4301V0.562501C84.6094 0.1875 84.7969 0 85.1719 0H93.4069C93.7819 0 93.9694 0.1875 93.9694 0.562501V9.36004H94.3069L95.7469 3.73501L96.6019 0.292501C96.6319 0.1575 96.7219 0.0749984 96.8719 0.0449987C97.0369 0.014999 97.1869 0 97.3219 0H104.927C105.302 0 105.489 0.1875 105.489 0.562501V6.36752C105.489 6.50253 105.459 6.62252 105.399 6.72752C105.339 6.83252 105.279 6.95253 105.219 7.08753L101.957 14.4001L101.597 15.0301L101.957 15.7501L105.759 23.2876C105.834 23.4076 105.879 23.5351 105.894 23.6701C105.924 23.7901 105.939 23.9476 105.939 24.1426V29.4301C105.939 29.8051 105.752 29.9926 105.377 29.9926H97.6819C97.5619 29.9926 97.4269 29.9701 97.2769 29.9251C97.1419 29.8801 97.0519 29.7901 97.0069 29.6551L95.6344 25.4926L94.3069 21.5551H93.9694V29.4301C93.9694 29.8051 93.7819 29.9926 93.4069 29.9926H85.1719Z" fill="white"/>
<path d="M68.9303 29.9926C68.5553 29.9926 68.3678 29.8051 68.3678 29.4301V9.00004H65.7578C65.3828 9.00004 65.1953 8.81253 65.1953 8.43753V0.562501C65.1953 0.1875 65.3828 0 65.7578 0H80.3829C80.7579 0 80.9454 0.1875 80.9454 0.562501V8.43753C80.9454 8.81253 80.7579 9.00004 80.3829 9.00004H77.7504V29.4301C77.7504 29.8051 77.5629 29.9926 77.1879 29.9926H68.9303Z" fill="white"/>
<path d="M40.8828 29.9926C40.5078 29.9926 40.3203 29.8051 40.3203 29.4301V0.562501C40.3203 0.1875 40.5078 0 40.8828 0H54.6304C55.0204 0 55.3204 0.0975005 55.5304 0.292501L60.7054 5.42252C60.8704 5.57252 60.9754 5.70002 61.0204 5.80502C61.0654 5.91002 61.0879 6.08252 61.0879 6.32252V12.4875C61.0879 12.6825 60.9604 12.9076 60.7054 13.1626L57.6004 16.2676L57.1054 16.7176L58.5004 18.8101L61.3129 24.2101C61.3879 24.3451 61.4329 24.4801 61.4479 24.6151C61.4779 24.7351 61.4929 24.8926 61.4929 25.0876V29.4301C61.4929 29.8051 61.3054 29.9926 60.9304 29.9926H53.8204C53.4904 29.9926 53.2654 29.8426 53.1454 29.5426L50.0628 21.6226H49.6803V29.4301C49.6803 29.8051 49.4928 29.9926 49.1178 29.9926H40.8828ZM50.6929 12.2175C51.3079 12.2175 51.8029 12.0225 52.1779 11.6325C52.5679 11.2425 52.7629 10.7475 52.7629 10.1475C52.7629 9.54754 52.5679 9.06003 52.1779 8.68503C51.8029 8.29503 51.3079 8.10003 50.6929 8.10003C50.0929 8.10003 49.5978 8.29503 49.2078 8.68503C48.8328 9.06003 48.6453 9.54754 48.6453 10.1475C48.6453 10.7475 48.8328 11.2425 49.2078 11.6325C49.5978 12.0225 50.0929 12.2175 50.6929 12.2175Z" fill="white"/>
<path d="M3.39945 11.7158L18.1327 11.7617C18.5343 11.7617 18.9015 11.5437 19.1081 11.1994L21.139 7.71118C21.3112 7.41284 21.0931 7.03418 20.7489 7.03418L5.92384 6.98828C5.52224 6.98828 5.15505 7.2063 4.94851 7.55053L0.152164 15.8007C-0.042903 16.1449 -0.0543775 16.581 0.140689 16.9252L7.50733 29.7767C7.67944 30.075 8.11548 30.075 8.28759 29.7767L10.3186 26.2884C10.5136 25.9442 10.5251 25.5081 10.3301 25.1639L3.00932 12.3928C2.8372 12.0944 3.05522 11.7158 3.39945 11.7158Z" fill="white"/>
<path d="M25.0502 5.46187L17.6377 18.1871C17.4426 18.5313 17.4312 18.9674 17.6262 19.3116L19.6343 22.8113C19.8064 23.1097 20.2424 23.1097 20.4145 22.8113L27.8844 9.9943C28.0795 9.65007 28.091 9.21404 27.8959 8.8698L23.1569 0.596675C22.9619 0.252439 22.5832 0.0229489 22.1816 0.0344235L7.35654 0C7.01231 0 6.79429 0.378659 6.96641 0.676996L8.96297 4.17672C9.15804 4.52096 9.5367 4.75045 9.93831 4.73897L24.6716 4.78487C25.0158 4.79635 25.2224 5.17501 25.0502 5.46187Z" fill="white"/>
<path d="M32.817 14.0652L28.778 14.0537C28.3764 14.0537 28.0092 14.2717 27.8027 14.616L20.3901 27.3412C20.218 27.6395 19.782 27.6395 19.6099 27.3412L12.3006 14.5815C12.1055 14.2373 11.7269 14.0078 11.3253 14.0193L7.28623 14.0078C6.94199 14.0078 6.72398 14.3865 6.8961 14.6848L14.2627 27.5363C14.4578 27.8805 14.8365 28.11 15.2381 28.0985L24.7849 28.1215C25.1865 28.1215 25.5537 27.9034 25.7602 27.5592L33.2072 14.7422C33.3793 14.4438 33.1613 14.0767 32.817 14.0652Z" fill="white"/>
</svg>
